<mxfile host="app.diagrams.net" agent="Mozilla/5.0 (Windows NT 10.0; Win64; x64) AppleWebKit/537.36 (KHTML, like Gecko) Chrome/140.0.0.0 Safari/537.36" version="28.2.3">
  <diagram name="Trang-1" id="m0cv-rMEQpZONHbpRZUN">
    <mxGraphModel dx="1042" dy="527" grid="1" gridSize="10" guides="1" tooltips="1" connect="1" arrows="1" fold="1" page="1" pageScale="1" pageWidth="827" pageHeight="1169" math="0" shadow="0">
      <root>
        <mxCell id="0" />
        <mxCell id="1" parent="0" />
        <mxCell id="mBxUzdykCbwtReUwJi3o-3" value="" style="edgeStyle=orthogonalEdgeStyle;rounded=0;orthogonalLoop=1;jettySize=auto;html=1;" edge="1" parent="1" source="mBxUzdykCbwtReUwJi3o-1" target="mBxUzdykCbwtReUwJi3o-2">
          <mxGeometry relative="1" as="geometry" />
        </mxCell>
        <mxCell id="mBxUzdykCbwtReUwJi3o-1" value="Bắt đầu" style="ellipse;whiteSpace=wrap;html=1;" vertex="1" parent="1">
          <mxGeometry x="310" y="40" width="120" height="80" as="geometry" />
        </mxCell>
        <mxCell id="mBxUzdykCbwtReUwJi3o-7" value="" style="edgeStyle=orthogonalEdgeStyle;rounded=0;orthogonalLoop=1;jettySize=auto;html=1;" edge="1" parent="1" source="mBxUzdykCbwtReUwJi3o-2" target="mBxUzdykCbwtReUwJi3o-6">
          <mxGeometry relative="1" as="geometry" />
        </mxCell>
        <mxCell id="mBxUzdykCbwtReUwJi3o-2" value="Bạn vào cửa hàng và tìm kiếm món đồ." style="whiteSpace=wrap;html=1;" vertex="1" parent="1">
          <mxGeometry x="310" y="170" width="120" height="60" as="geometry" />
        </mxCell>
        <mxCell id="mBxUzdykCbwtReUwJi3o-9" value="" style="edgeStyle=orthogonalEdgeStyle;rounded=0;orthogonalLoop=1;jettySize=auto;html=1;" edge="1" parent="1" source="mBxUzdykCbwtReUwJi3o-14" target="mBxUzdykCbwtReUwJi3o-8">
          <mxGeometry relative="1" as="geometry" />
        </mxCell>
        <mxCell id="mBxUzdykCbwtReUwJi3o-11" value="" style="edgeStyle=orthogonalEdgeStyle;rounded=0;orthogonalLoop=1;jettySize=auto;html=1;" edge="1" parent="1" source="mBxUzdykCbwtReUwJi3o-12" target="mBxUzdykCbwtReUwJi3o-10">
          <mxGeometry relative="1" as="geometry" />
        </mxCell>
        <mxCell id="mBxUzdykCbwtReUwJi3o-6" value="Bạn vào cửa hàng và tìm kiếm món đồ." style="rhombus;whiteSpace=wrap;html=1;" vertex="1" parent="1">
          <mxGeometry x="302.5" y="280" width="135" height="130" as="geometry" />
        </mxCell>
        <mxCell id="mBxUzdykCbwtReUwJi3o-18" value="" style="edgeStyle=orthogonalEdgeStyle;rounded=0;orthogonalLoop=1;jettySize=auto;html=1;" edge="1" parent="1" source="mBxUzdykCbwtReUwJi3o-8" target="mBxUzdykCbwtReUwJi3o-17">
          <mxGeometry relative="1" as="geometry" />
        </mxCell>
        <mxCell id="mBxUzdykCbwtReUwJi3o-8" value="Mua món đồ" style="whiteSpace=wrap;html=1;" vertex="1" parent="1">
          <mxGeometry x="525" y="315" width="120" height="60" as="geometry" />
        </mxCell>
        <mxCell id="mBxUzdykCbwtReUwJi3o-10" value="Hỏi nhân viên" style="whiteSpace=wrap;html=1;" vertex="1" parent="1">
          <mxGeometry x="93" y="315" width="120" height="60" as="geometry" />
        </mxCell>
        <mxCell id="mBxUzdykCbwtReUwJi3o-13" value="" style="edgeStyle=orthogonalEdgeStyle;rounded=0;orthogonalLoop=1;jettySize=auto;html=1;" edge="1" parent="1" source="mBxUzdykCbwtReUwJi3o-6" target="mBxUzdykCbwtReUwJi3o-12">
          <mxGeometry relative="1" as="geometry">
            <mxPoint x="303" y="345" as="sourcePoint" />
            <mxPoint x="215" y="345" as="targetPoint" />
          </mxGeometry>
        </mxCell>
        <mxCell id="mBxUzdykCbwtReUwJi3o-12" value="N" style="text;html=1;align=center;verticalAlign=middle;resizable=0;points=[];autosize=1;strokeColor=none;fillColor=none;" vertex="1" parent="1">
          <mxGeometry x="240" y="330" width="30" height="30" as="geometry" />
        </mxCell>
        <mxCell id="mBxUzdykCbwtReUwJi3o-15" value="" style="edgeStyle=orthogonalEdgeStyle;rounded=0;orthogonalLoop=1;jettySize=auto;html=1;" edge="1" parent="1" source="mBxUzdykCbwtReUwJi3o-6" target="mBxUzdykCbwtReUwJi3o-14">
          <mxGeometry relative="1" as="geometry">
            <mxPoint x="438" y="345" as="sourcePoint" />
            <mxPoint x="525" y="345" as="targetPoint" />
          </mxGeometry>
        </mxCell>
        <mxCell id="mBxUzdykCbwtReUwJi3o-14" value="Y" style="text;html=1;align=center;verticalAlign=middle;resizable=0;points=[];autosize=1;strokeColor=none;fillColor=none;" vertex="1" parent="1">
          <mxGeometry x="470" y="330" width="30" height="30" as="geometry" />
        </mxCell>
        <mxCell id="mBxUzdykCbwtReUwJi3o-22" value="" style="edgeStyle=orthogonalEdgeStyle;rounded=0;orthogonalLoop=1;jettySize=auto;html=1;" edge="1" parent="1" source="mBxUzdykCbwtReUwJi3o-17" target="mBxUzdykCbwtReUwJi3o-21">
          <mxGeometry relative="1" as="geometry" />
        </mxCell>
        <mxCell id="mBxUzdykCbwtReUwJi3o-17" value="Thanh toán" style="whiteSpace=wrap;html=1;" vertex="1" parent="1">
          <mxGeometry x="525" y="440" width="120" height="60" as="geometry" />
        </mxCell>
        <mxCell id="mBxUzdykCbwtReUwJi3o-21" value="Ra về" style="whiteSpace=wrap;html=1;" vertex="1" parent="1">
          <mxGeometry x="525" y="580" width="120" height="60" as="geometry" />
        </mxCell>
        <mxCell id="mBxUzdykCbwtReUwJi3o-23" value="" style="endArrow=classic;html=1;rounded=0;" edge="1" parent="1" source="mBxUzdykCbwtReUwJi3o-10" target="mBxUzdykCbwtReUwJi3o-21">
          <mxGeometry width="50" height="50" relative="1" as="geometry">
            <mxPoint x="390" y="600" as="sourcePoint" />
            <mxPoint x="440" y="550" as="targetPoint" />
            <Array as="points">
              <mxPoint x="150" y="610" />
            </Array>
          </mxGeometry>
        </mxCell>
        <mxCell id="mBxUzdykCbwtReUwJi3o-24" value="kết thúc" style="ellipse;whiteSpace=wrap;html=1;" vertex="1" parent="1">
          <mxGeometry x="525" y="710" width="120" height="80" as="geometry" />
        </mxCell>
        <mxCell id="mBxUzdykCbwtReUwJi3o-25" value="" style="endArrow=classic;html=1;rounded=0;" edge="1" parent="1" source="mBxUzdykCbwtReUwJi3o-21" target="mBxUzdykCbwtReUwJi3o-24">
          <mxGeometry width="50" height="50" relative="1" as="geometry">
            <mxPoint x="390" y="800" as="sourcePoint" />
            <mxPoint x="440" y="750" as="targetPoint" />
          </mxGeometry>
        </mxCell>
      </root>
    </mxGraphModel>
  </diagram>
</mxfile>
